<svg width="20" height="21" viewBox="0 0 20 21" fill="none" xmlns="http://www.w3.org/2000/svg">
<path d="M15.1166 18.5166C14.3833 18.7333 13.5166 18.8333 12.5 18.8333H7.49997C6.4833 18.8333 5.61663 18.7333 4.8833 18.5166C5.06663 16.3499 7.29163 14.6416 9.99997 14.6416C12.7083 14.6416 14.9333 16.3499 15.1166 18.5166V18.5166Z" stroke="#828282" stroke-width="1.5" stroke-linecap="round" stroke-linejoin="round"/>
<path d="M12.4998 2.16699H7.49984C3.33317 2.16699 1.6665 3.83366 1.6665 8.00033V13.0003C1.6665 16.1503 2.6165 17.8753 4.88317 18.517C5.0665 16.3503 7.2915 14.642 9.99984 14.642C12.7082 14.642 14.9332 16.3503 15.1165 18.517C17.3832 17.8753 18.3332 16.1503 18.3332 13.0003V8.00033C18.3332 3.83366 16.6665 2.16699 12.4998 2.16699ZM9.99984 12.3087C8.34984 12.3087 7.0165 10.967 7.0165 9.31699C7.0165 7.66699 8.34984 6.33366 9.99984 6.33366C11.6498 6.33366 12.9832 7.66699 12.9832 9.31699C12.9832 10.967 11.6498 12.3087 9.99984 12.3087Z" stroke="#828282" stroke-width="1.5" stroke-linecap="round" stroke-linejoin="round"/>
<path d="M12.9831 9.31732C12.9831 10.9673 11.6498 12.309 9.99981 12.309C8.34981 12.309 7.01648 10.9673 7.01648 9.31732C7.01648 7.66732 8.34981 6.33398 9.99981 6.33398C11.6498 6.33398 12.9831 7.66732 12.9831 9.31732Z" stroke="#828282" stroke-width="1.5" stroke-linecap="round" stroke-linejoin="round"/>
</svg>
