<svg width="24" height="25" viewBox="0 0 24 25" fill="none" xmlns="http://www.w3.org/2000/svg">
<g clip-path="url(#clip0_2127_1688)">
<path d="M0.96 4.70593C0.429912 4.70593 0 5.13572 0 5.66593V18.8179C0 19.3481 0.430128 19.7779 0.96 19.7779H23.04C23.5701 19.7779 24 19.3481 24 18.8179V5.66593C24 5.13575 23.5699 4.70593 23.04 4.70593H0.96ZM14.334 9.19768C14.9181 9.19768 15.3862 9.3267 15.6847 9.44668L15.4807 10.7299L15.3457 10.6617C15.0677 10.5417 14.7105 10.4262 14.2177 10.4344C13.6279 10.4344 13.3553 10.6975 13.3553 10.9437C13.3518 11.2211 13.6739 11.404 14.2005 11.6779C15.0697 12.1006 15.4714 12.613 15.4658 13.2867C15.4541 14.5159 14.426 15.3102 12.8423 15.3102C12.1666 15.3027 11.5156 15.1597 11.1637 14.9944L11.3753 13.6684L11.5695 13.7629C12.0643 13.984 12.3847 14.0734 12.9877 14.0734C13.4208 14.0734 13.8856 13.8921 13.8893 13.4952C13.8921 13.236 13.695 13.0512 13.1085 12.7609C12.537 12.4776 11.7794 12.0031 11.7878 11.1522C11.7967 10.0011 12.8453 9.19768 14.334 9.19768ZM2.12249 9.38593H4.55474C4.88227 9.39832 5.1467 9.50377 5.238 9.85919L5.76226 12.5652C5.76233 12.5654 5.76216 12.5664 5.76226 12.5667L5.91974 13.3774L7.39649 9.38593H8.994L6.61949 15.2284L5.02349 15.2299L3.753 10.5154C4.50895 10.9159 5.15254 11.3793 5.52526 12.0169C5.42916 11.8152 5.30254 11.5874 5.14051 11.3629C4.95182 11.1015 4.54433 10.764 4.374 10.6204C3.78048 10.1201 2.97444 9.716 2.10374 9.50219L2.12249 9.38593ZM9.62926 9.39268H11.1915L10.2142 15.2262H8.652L9.62926 9.39268ZM18.453 9.39268H19.6365L20.8755 15.2262H19.455C19.455 15.2262 19.3141 14.556 19.2683 14.3517C19.045 14.3517 17.4834 14.3494 17.3077 14.3494C17.2483 14.5074 16.9853 15.2262 16.9853 15.2262H15.378L17.6513 9.87719C17.8122 9.49708 18.0865 9.39268 18.453 9.39268ZM18.5693 10.9617C18.4924 11.1787 18.3585 11.5291 18.3675 11.5137C18.3675 11.5137 17.8866 12.7962 17.7608 13.1292L19.0245 13.1284C18.9071 12.5722 18.7896 12.0159 18.672 11.4597L18.5693 10.9617V10.9617Z" fill="#1434CB"/>
</g>
<defs>
<clipPath id="clip0_2127_1688">
<rect width="24" height="24" fill="white" transform="translate(0 0.241943)"/>
</clipPath>
</defs>
</svg>
